<?xml version="1.0" standalone="no"?>
<!DOCTYPE svg PUBLIC "-//W3C//DTD SVG 20010904//EN"
 "http://www.w3.org/TR/2001/REC-SVG-20010904/DTD/svg10.dtd">
<svg version="1.0" xmlns="http://www.w3.org/2000/svg"
 width="1900.000000pt" height="1900.000000pt" viewBox="0 0 1900.000000 1900.000000"
 preserveAspectRatio="xMidYMid meet">
<metadata>
Created by potrace 1.14, written by Peter Selinger 2001-2017
</metadata>
<g transform="translate(0.000000,1900.000000) scale(0.100000,-0.100000)"
fill="#000000" stroke="none">
<path d="M9037 16283 c-4 -3 -3 -11 2 -17 6 -7 4 -16 -4 -23 -10 -10 -15 -9
-19 4 -6 14 -8 14 -22 -3 -9 -10 -13 -14 -10 -8 9 19 -17 23 -56 9 -27 -9 -40
-9 -49 -1 -8 8 -13 8 -16 -1 -4 -10 -11 -9 -34 2 -22 12 -29 13 -27 3 2 -8 -5
-12 -16 -10 -10 2 -15 -1 -12 -6 7 -12 -13 -10 -33 2 -10 6 -12 5 -7 -3 5 -8
0 -10 -18 -7 -14 3 -26 1 -26 -3 0 -3 -9 -7 -20 -8 -11 -1 -18 2 -15 7 3 5 -5
6 -17 3 -13 -3 -31 -6 -40 -6 -17 -1 -22 -10 -19 -29 2 -12 -6 -9 -23 8 -9 8
-16 11 -16 5 0 -6 -10 -15 -21 -22 -12 -6 -19 -7 -15 -1 3 5 -1 13 -10 16 -8
3 -13 2 -10 -3 3 -5 -1 -12 -10 -15 -8 -3 -12 -2 -9 3 3 5 0 13 -6 17 -8 4 -9
3 -5 -4 5 -8 -3 -11 -23 -8 -19 2 -35 -2 -43 -12 -7 -9 -8 -13 -2 -9 6 3 11 0
11 -7 0 -8 -6 -12 -14 -9 -7 3 -13 9 -13 15 0 5 -7 3 -15 -5 -9 -10 -26 -14
-46 -10 -24 3 -29 2 -23 -9 5 -9 2 -8 -11 2 -15 12 -17 12 -10 1 6 -11 4 -13
-8 -8 -12 4 -17 1 -17 -11 0 -13 -2 -14 -9 -3 -7 10 -10 11 -16 1 -6 -10 -12
-8 -23 6 -14 18 -14 18 -10 -2 4 -16 1 -20 -16 -18 -12 1 -25 3 -29 3 -5 1 -5
6 -1 13 4 7 3 8 -5 4 -6 -4 -9 -11 -6 -16 8 -14 -19 -28 -40 -20 -35 13 -77
-10 -42 -23 6 -3 -1 -4 -18 -3 -18 2 -39 -5 -52 -17 -13 -12 -23 -15 -23 -9 0
7 5 12 10 12 6 0 10 4 10 10 0 6 -10 5 -25 -2 -21 -9 -23 -14 -12 -26 11 -14
9 -14 -13 -2 -34 19 -47 20 -47 4 0 -11 4 -11 16 -2 13 10 14 10 4 -2 -16 -17
-46 -23 -36 -7 4 7 0 6 -10 -1 -9 -8 -26 -11 -39 -8 -13 3 -17 3 -10 0 20 -9
14 -27 -8 -21 -11 3 -20 1 -20 -4 0 -5 -11 -4 -25 1 -19 7 -23 6 -18 -5 3 -8
10 -12 16 -8 6 3 7 1 3 -6 -4 -6 -12 -9 -17 -6 -5 4 -9 0 -9 -7 0 -8 -4 -7
-11 4 -5 9 -16 15 -24 12 -8 -4 -12 -10 -9 -15 3 -5 -6 -9 -20 -9 -14 0 -28
-5 -32 -12 -4 -7 -3 -8 4 -4 18 11 14 0 -5 -15 -10 -8 -14 -9 -10 -2 4 6 3 14
-2 17 -9 6 -26 -22 -23 -37 1 -4 -7 -2 -17 5 -11 7 -17 16 -14 22 3 5 1 6 -6
2 -6 -4 -8 -12 -5 -18 5 -8 1 -9 -10 -5 -10 4 -15 3 -11 -3 4 -6 -7 -10 -25
-10 -24 0 -31 -4 -27 -14 4 -9 0 -13 -11 -11 -21 3 -63 -15 -57 -25 3 -4 -4
-10 -15 -13 -11 -3 -23 -1 -26 4 -3 6 -12 5 -21 -3 -9 -7 -19 -12 -22 -11 -3
1 -4 -6 -3 -15 2 -9 1 -14 -4 -10 -4 4 -14 2 -22 -5 -13 -10 -14 -9 -7 3 8 13
6 13 -8 1 -9 -7 -15 -17 -12 -21 3 -5 1 -12 -5 -15 -6 -4 -9 -1 -8 5 2 7 -5
14 -15 15 -10 2 -14 -1 -10 -8 4 -7 0 -8 -12 -3 -15 5 -16 4 -5 -9 7 -9 10
-18 6 -22 -3 -3 -6 -2 -6 4 0 11 -21 10 -58 -2 -13 -4 -21 -13 -18 -20 7 -20
-4 -26 -27 -14 -14 8 -18 8 -13 0 4 -7 -1 -11 -13 -11 -11 0 -23 -5 -26 -10
-4 -6 -10 -8 -14 -6 -4 3 -13 0 -21 -6 -12 -8 -12 -9 3 -4 15 5 16 3 7 -14 -6
-11 -13 -20 -16 -20 -3 0 -3 4 0 9 3 5 -1 11 -9 15 -8 3 -14 0 -12 -7 1 -7 -6
-11 -16 -11 -11 1 -16 -4 -15 -15 2 -9 -2 -15 -9 -14 -6 1 -16 -4 -23 -12 -10
-12 -17 -12 -34 -3 -19 10 -20 10 -7 -6 8 -9 10 -16 5 -15 -22 4 -35 -2 -28
-13 4 -7 -3 -4 -17 7 -18 15 -20 16 -10 3 12 -16 11 -18 -5 -18 -11 0 -26 -5
-34 -11 -12 -8 -9 -9 10 -5 15 4 9 -2 -15 -13 -21 -11 -44 -17 -49 -14 -5 4
-6 1 -1 -7 6 -10 4 -12 -8 -7 -11 4 -15 1 -12 -14 2 -10 0 -19 -6 -19 -5 0 -9
8 -9 18 -1 11 -6 7 -16 -13 -8 -16 -12 -21 -9 -10 5 19 5 20 -10 1 -8 -10 -11
-24 -8 -30 4 -6 -1 -5 -10 3 -14 11 -18 10 -28 -13 -9 -18 -15 -23 -20 -14 -6
9 -11 9 -22 0 -7 -7 -18 -8 -22 -4 -5 4 -5 2 -1 -5 4 -8 -6 -18 -29 -28 -20
-8 -39 -24 -42 -35 -4 -16 -9 -18 -25 -9 -15 8 -19 8 -14 0 4 -6 0 -14 -8 -17
-9 -3 -16 -13 -16 -21 0 -10 -6 -13 -16 -9 -8 3 -12 2 -9 -4 3 -6 -1 -10 -11
-10 -13 0 -14 -3 -5 -13 8 -10 7 -14 -4 -15 -8 -1 -22 -3 -30 -4 -9 -1 -14 -7
-11 -14 7 -17 -10 -28 -20 -13 -5 8 -3 9 6 4 9 -5 11 -4 6 4 -4 6 -12 9 -17 5
-5 -3 -7 -10 -4 -15 6 -8 -17 -14 -40 -9 -5 1 -4 -4 3 -11 18 -19 15 -34 -5
-18 -14 12 -16 12 -8 0 6 -11 4 -13 -10 -7 -15 5 -16 4 -6 -8 11 -13 9 -15 -9
-11 -19 4 -20 2 -8 -12 9 -12 9 -15 1 -9 -7 4 -13 2 -13 -3 0 -6 -4 -11 -10
-11 -5 0 -7 8 -3 18 3 9 2 14 -2 9 -5 -4 -9 -17 -10 -29 -1 -14 -9 -22 -26
-25 -13 -2 -30 -11 -36 -20 -7 -9 -13 -13 -13 -9 0 5 -7 3 -15 -4 -9 -7 -13
-15 -11 -17 7 -7 -27 -43 -41 -43 -7 0 -10 -7 -6 -16 5 -14 3 -15 -18 -4 -22
12 -23 12 -10 -4 8 -9 12 -18 10 -19 -2 -1 -13 -9 -24 -17 -19 -14 -19 -14 -6
3 8 9 12 20 9 22 -3 3 -11 -6 -18 -20 -7 -14 -17 -25 -22 -25 -5 0 -6 -6 -2
-12 4 -7 -3 -4 -16 7 l-23 20 19 -29 18 -29 -24 13 c-14 7 -21 9 -17 4 4 -4
-3 -14 -15 -22 -13 -7 -16 -11 -7 -9 9 3 16 -1 16 -8 0 -7 -8 -10 -18 -8 -14
4 -17 -1 -14 -23 2 -25 1 -26 -10 -11 -16 22 -29 22 -21 1 5 -14 4 -15 -9 -4
-13 11 -14 10 -9 -4 3 -9 11 -16 17 -16 6 0 8 -3 5 -6 -4 -3 -16 -1 -27 6 -17
8 -21 8 -19 -2 2 -7 -3 -12 -9 -10 -17 3 -16 -3 3 -23 15 -15 14 -15 -12 -10
-22 5 -25 4 -14 -4 13 -9 12 -11 -3 -11 -10 0 -15 -4 -12 -10 3 -5 -1 -10 -11
-10 -14 0 -15 -2 -3 -17 13 -15 12 -15 -10 -4 -13 7 -21 8 -17 3 3 -6 2 -13
-4 -17 -6 -4 -7 -11 -4 -17 4 -6 2 -8 -3 -5 -6 4 -16 0 -23 -8 -7 -8 -17 -12
-23 -8 -6 4 -7 1 -2 -6 5 -9 10 -10 18 -2 6 6 16 11 21 11 6 0 0 -7 -12 -16
-12 -8 -27 -12 -34 -8 -6 4 -9 3 -6 -2 3 -5 2 -19 -3 -31 -6 -16 -13 -21 -25
-16 -12 4 -15 3 -10 -5 4 -7 1 -12 -9 -12 -11 0 -15 -5 -11 -16 3 -9 2 -12 -5
-9 -6 4 -13 -2 -16 -14 -6 -24 -13 -26 -33 -8 -12 10 -12 9 -1 -5 11 -15 11
-18 0 -18 -11 0 -11 -2 -1 -9 10 -6 9 -11 -4 -22 -15 -12 -17 -12 -9 0 5 9 4
12 -3 7 -5 -3 -12 0 -15 6 -3 7 -3 -4 -2 -24 3 -27 0 -35 -10 -32 -7 3 -16 0
-21 -7 -5 -8 -3 -10 7 -4 12 8 12 6 0 -8 -7 -9 -20 -17 -28 -17 -13 0 -13 -3
-3 -15 11 -13 10 -14 -2 -10 -8 3 -21 -2 -29 -12 -13 -17 -13 -17 6 -3 19 14
19 14 6 -2 -7 -10 -20 -18 -29 -18 -8 0 -12 -3 -9 -7 4 -3 -1 -12 -11 -20 -9
-8 -12 -12 -5 -9 6 4 15 2 18 -4 4 -6 3 -10 -2 -9 -19 3 -43 -2 -42 -8 1 -5 1
-17 0 -28 -1 -17 -3 -18 -11 -5 -8 12 -10 11 -10 -7 0 -12 -6 -24 -12 -26 -10
-4 -9 -8 2 -16 13 -10 13 -11 0 -12 -8 -1 -21 -1 -27 0 -8 1 -10 -5 -7 -14 5
-11 2 -14 -12 -9 -17 6 -17 5 1 -9 l20 -16 -20 -2 c-11 -1 -23 -1 -27 0 -5 0
-8 -6 -8 -14 0 -9 -6 -18 -14 -21 -7 -3 -13 -16 -13 -29 0 -14 4 -22 10 -18 6
3 7 1 3 -6 -4 -6 -11 -9 -15 -6 -5 2 -17 -3 -27 -11 -10 -9 -14 -13 -9 -10 6
2 11 -4 11 -14 0 -18 -1 -18 -20 -2 -18 16 -19 16 -6 -7 11 -22 11 -23 -6 -17
-10 4 -15 4 -11 0 4 -4 -5 -21 -20 -36 -19 -19 -22 -27 -10 -23 10 4 17 3 17
-4 0 -10 -13 -15 -32 -12 -4 0 -5 -9 -3 -20 2 -11 -2 -22 -11 -26 -8 -3 -20
-15 -26 -27 -10 -18 -9 -19 4 -8 13 10 18 10 24 1 4 -8 3 -9 -5 -5 -6 4 -14 1
-17 -8 -3 -8 -11 -14 -17 -12 -7 1 -9 1 -4 -1 14 -8 7 -25 -8 -19 -13 4 -14 2
-5 -14 9 -16 8 -18 -6 -13 -12 4 -15 3 -10 -5 4 -7 2 -12 -3 -12 -6 0 -11 -5
-11 -11 0 -5 5 -7 12 -3 7 4 8 3 4 -5 -6 -9 -11 -9 -24 1 -13 12 -14 10 -4 -9
9 -16 9 -24 0 -29 -7 -5 -8 -3 -3 6 6 9 4 11 -4 5 -7 -4 -10 -16 -8 -27 5 -16
3 -17 -9 -7 -12 10 -13 9 -8 -6 5 -12 4 -16 -4 -11 -7 4 -10 -1 -7 -14 2 -11
0 -18 -6 -15 -5 4 -9 -8 -9 -25 0 -18 -6 -33 -16 -37 -8 -3 -13 -12 -10 -19 3
-8 -1 -14 -10 -14 -9 0 -12 -5 -8 -12 5 -8 2 -9 -11 -4 -18 6 -18 6 1 -15 10
-12 13 -19 6 -15 -18 11 -42 -12 -35 -31 5 -12 3 -14 -8 -8 -8 5 -5 -2 6 -15
l20 -23 -23 12 c-22 12 -23 11 -17 -9 5 -14 3 -20 -3 -16 -6 4 -9 -9 -8 -32 2
-26 -2 -39 -11 -39 -10 0 -10 4 -1 16 8 10 4 8 -10 -3 -23 -20 -30 -32 -10
-20 8 5 9 0 4 -17 -5 -13 -8 -31 -9 -40 -1 -10 -8 -14 -18 -12 -9 3 -20 -1
-24 -8 -5 -8 -4 -10 3 -5 7 4 12 1 12 -9 0 -9 -4 -14 -9 -10 -5 3 -12 1 -15
-4 -4 -5 -1 -13 5 -17 8 -5 9 -3 4 7 -5 8 -4 11 0 6 5 -4 9 -16 10 -27 2 -19
1 -19 -18 -3 -11 10 -17 13 -14 6 4 -6 3 -15 -3 -18 -8 -5 -6 -14 4 -30 13
-20 13 -22 -2 -21 -12 1 -17 -7 -17 -25 0 -16 -4 -25 -11 -22 -15 6 -24 -30
-12 -51 7 -12 6 -16 -4 -14 -8 2 -13 -7 -13 -24 1 -22 -2 -25 -14 -15 -12 10
-13 9 -3 -9 12 -23 7 -35 -13 -28 -8 3 -12 -3 -10 -18 1 -13 -7 -38 -17 -55
-19 -32 -17 -59 4 -47 7 4 8 2 4 -5 -4 -6 -11 -9 -16 -6 -4 3 -10 -2 -14 -10
-3 -8 0 -15 6 -15 6 0 8 -3 4 -7 -4 -5 -13 -8 -19 -8 -14 0 -17 -25 -5 -42 6
-7 4 -14 -3 -19 -8 -5 -9 -3 -4 6 5 8 4 11 -3 7 -5 -4 -8 -17 -4 -29 4 -16 2
-19 -9 -13 -11 7 -12 6 -3 -6 15 -20 12 -36 -11 -54 -11 -9 -13 -13 -5 -9 12
6 13 5 4 -7 -6 -8 -11 -29 -10 -47 1 -21 -3 -31 -11 -28 -7 3 -15 0 -19 -6 -4
-6 -3 -8 4 -4 6 3 13 2 17 -4 3 -5 -1 -10 -9 -10 -8 0 -18 -5 -22 -12 -4 -6
-3 -8 3 -5 6 4 11 -4 11 -18 0 -16 -5 -22 -12 -18 -6 4 -4 -2 4 -12 14 -17 13
-18 -5 -12 -19 7 -19 6 -2 -7 17 -13 17 -14 -1 -18 -14 -4 -18 -14 -17 -38 1
-17 -4 -38 -12 -46 -12 -12 -11 -14 9 -15 l23 0 -24 -10 c-23 -9 -24 -10 -5
-31 19 -21 19 -21 -3 -9 -27 14 -45 14 -20 0 9 -6 15 -15 12 -20 -4 -5 -12 -6
-18 -2 -8 4 -7 1 1 -9 11 -14 10 -18 -4 -26 -15 -8 -15 -10 1 -16 14 -5 15 -9
5 -21 -9 -11 -9 -15 -1 -15 7 0 10 -4 6 -10 -3 -5 -13 -6 -23 -3 -14 5 -14 3
2 -9 11 -9 21 -23 22 -32 2 -14 0 -15 -12 -5 -7 6 -11 16 -7 22 3 6 1 7 -5 3
-9 -5 -9 -13 -2 -27 9 -15 7 -19 -6 -19 -13 0 -14 -3 -5 -14 9 -11 8 -15 -5
-20 -15 -6 -14 -10 7 -33 13 -14 18 -23 12 -19 -21 12 -34 -3 -23 -25 6 -11
16 -16 22 -13 7 4 8 3 4 -5 -4 -6 -12 -9 -17 -6 -5 4 -9 -1 -9 -10 0 -10 5
-13 13 -9 7 5 6 0 -3 -11 -8 -10 -15 -21 -15 -24 0 -3 -6 -5 -13 -5 -10 2 -10
-1 -1 -12 9 -11 8 -14 -2 -14 -11 0 -11 -2 1 -10 11 -7 11 -10 2 -10 -8 0 -10
-5 -5 -12 11 -19 13 -39 2 -32 -5 3 -6 10 -3 16 4 7 2 8 -4 4 -9 -5 -9 -13 -2
-27 6 -10 7 -19 3 -19 -4 0 -1 -5 7 -10 10 -6 11 -10 3 -10 -7 0 -13 -7 -13
-16 0 -9 5 -12 12 -8 6 4 4 -3 -4 -15 -11 -15 -14 -32 -9 -49 4 -15 7 -34 6
-42 -1 -8 4 -22 9 -30 10 -13 9 -13 -8 0 -18 14 -19 13 -13 -4 6 -16 5 -17 -7
-7 -12 10 -13 9 -9 -8 3 -13 1 -21 -8 -21 -7 0 -9 -3 -6 -6 4 -4 14 -1 23 7
16 13 16 12 5 -9 -7 -13 -10 -28 -8 -35 2 -7 0 -20 -5 -29 -5 -10 -5 -18 -1
-18 4 0 8 -14 9 -30 1 -17 -3 -30 -8 -30 -5 0 -7 4 -3 9 3 5 1 12 -4 15 -16
10 -6 -22 15 -46 15 -18 16 -20 1 -9 -15 12 -17 12 -11 -3 4 -10 1 -16 -7 -16
-11 0 -11 -2 1 -10 13 -8 13 -13 2 -31 -8 -11 -9 -18 -3 -15 5 4 12 2 16 -4 3
-5 1 -10 -6 -10 -8 0 -8 -4 1 -15 11 -13 10 -18 -5 -29 -14 -10 -15 -15 -5
-21 9 -6 11 -4 5 5 -5 9 -4 11 4 6 9 -6 8 -13 -3 -31 -12 -17 -13 -26 -4 -31
7 -5 8 -3 3 6 -5 9 -4 11 4 6 9 -6 9 -11 0 -22 -9 -11 -8 -14 2 -14 8 0 6 -6
-7 -16 -10 -8 -13 -13 -6 -9 7 4 12 0 12 -10 0 -10 5 -13 12 -9 7 4 8 3 4 -5
-4 -6 -12 -9 -17 -6 -5 4 -9 2 -9 -4 0 -5 5 -13 11 -16 6 -5 4 -12 -8 -22 -10
-8 -13 -12 -6 -9 6 4 14 2 18 -4 3 -5 2 -10 -4 -10 -6 0 -8 -6 -5 -14 3 -8 0
-17 -6 -21 -7 -4 -8 -11 -2 -18 5 -7 9 -19 9 -27 1 -25 11 -67 21 -87 11 -21
5 -46 -10 -37 -5 3 -4 -3 3 -14 7 -12 18 -18 24 -15 5 3 4 0 -2 -8 -15 -16
-17 -33 -3 -24 6 3 10 2 10 -4 0 -5 -6 -11 -12 -14 -9 -3 -7 -10 7 -21 12 -10
14 -14 5 -11 -11 4 -16 -1 -16 -14 0 -11 4 -17 8 -15 4 3 8 0 8 -5 0 -6 -5
-11 -11 -11 -6 0 -9 -6 -6 -12 2 -7 11 -12 18 -11 10 2 9 -1 -2 -9 -15 -11
-15 -13 4 -28 16 -13 17 -19 7 -25 -9 -6 -11 -4 -5 5 5 8 4 11 -3 6 -6 -4 -9
-13 -6 -21 4 -8 10 -12 15 -9 14 8 11 -20 -3 -35 -11 -12 -10 -13 6 -7 18 6
18 5 2 -18 -20 -32 -20 -36 2 -36 14 0 15 -2 2 -10 -13 -8 -12 -10 3 -10 9 0
17 -4 17 -10 0 -5 -7 -7 -15 -4 -11 5 -13 2 -9 -10 3 -9 10 -16 16 -16 5 0 2
-7 -6 -16 -9 -8 -16 -18 -16 -21 0 -4 3 -3 6 0 4 3 14 2 23 -3 17 -9 22 -55 8
-77 -5 -7 -5 -13 0 -13 4 0 9 -14 10 -32 1 -17 7 -35 14 -38 16 -10 16 -15 -1
-35 -13 -17 -13 -18 1 -13 13 5 16 2 12 -15 -4 -17 -2 -19 5 -8 8 11 10 8 9
-12 -2 -19 -5 -23 -15 -15 -9 8 -11 7 -6 -6 3 -9 10 -16 15 -16 5 0 9 -5 9
-11 0 -5 -6 -7 -12 -3 -10 6 -10 5 -1 -7 8 -10 9 -19 3 -27 -7 -9 -7 -9 2 -2
20 16 32 11 17 -7 -10 -11 -10 -14 -1 -9 16 9 16 -6 0 -23 -10 -11 -10 -13 0
-7 7 4 12 1 12 -8 0 -9 -6 -16 -12 -16 -7 -1 -4 -6 7 -13 12 -7 20 -19 20 -27
0 -8 6 -20 14 -26 11 -8 11 -13 2 -18 -9 -6 -9 -11 0 -22 9 -11 9 -14 0 -14
-7 0 -9 -5 -6 -10 4 -6 11 -8 16 -5 5 4 9 1 9 -5 0 -6 4 -8 10 -5 5 3 3 -10
-5 -28 -8 -19 -11 -38 -7 -42 4 -3 7 -12 7 -18 1 -7 6 -11 13 -9 7 1 12 -3 12
-9 0 -5 4 -8 9 -4 10 6 8 -14 -4 -50 -6 -16 -5 -17 4 -5 8 12 11 8 11 -20 0
-23 3 -30 9 -22 7 11 9 10 14 -3 4 -9 3 -13 -2 -10 -5 3 -12 1 -16 -5 -3 -5 2
-10 12 -10 15 0 16 -2 3 -10 -12 -8 -12 -10 5 -10 18 -1 18 -2 -4 -14 -20 -11
-21 -14 -6 -19 24 -10 32 -8 15 3 -8 5 -10 10 -5 10 6 0 17 -5 25 -10 11 -7
12 -10 2 -10 -8 0 -12 -9 -10 -22 2 -13 9 -22 15 -21 6 1 9 -6 6 -17 -3 -11
-10 -17 -16 -13 -6 3 -7 1 -3 -5 4 -6 13 -9 21 -5 10 3 15 -2 15 -16 0 -12 5
-21 11 -21 5 0 7 -5 4 -10 -5 -8 -12 -7 -22 2 -15 12 -15 11 -2 -9 9 -16 16
-19 21 -10 5 8 8 4 8 -11 0 -15 -4 -21 -12 -16 -7 4 -8 3 -4 -4 4 -6 14 -8 23
-5 11 4 14 3 9 -5 -4 -7 -2 -12 4 -12 6 0 8 -5 3 -12 -12 -20 -12 -37 -1 -45
7 -3 8 -1 4 5 -4 7 -3 12 3 12 13 0 24 -37 15 -52 -5 -8 -2 -9 10 -5 12 5 15
3 9 -6 -14 -22 -12 -36 5 -30 11 5 14 2 9 -10 -3 -9 -2 -19 4 -22 5 -4 6 -11
3 -17 -4 -6 2 -8 17 -4 13 3 18 3 11 0 -10 -5 -10 -9 0 -22 11 -15 11 -15 -4
-4 -12 10 -18 10 -24 1 -5 -8 -3 -9 6 -4 10 6 12 4 7 -8 -4 -12 -2 -14 10 -10
13 5 15 1 11 -18 -3 -19 0 -25 15 -26 27 -2 32 -10 18 -27 -9 -11 -9 -15 1
-19 11 -4 10 -7 0 -15 -11 -7 -10 -10 3 -16 24 -9 32 -7 15 4 -8 5 -10 10 -4
10 18 0 24 -13 13 -27 -9 -10 -8 -13 0 -13 7 0 9 -4 6 -10 -3 -5 -1 -10 5 -10
6 0 10 -8 8 -17 -2 -11 2 -17 11 -15 9 2 12 -5 9 -22 -3 -14 -2 -25 1 -24 3 0
13 0 21 -1 13 -1 13 -2 0 -11 -11 -7 -12 -10 -2 -10 7 0 21 -7 29 -16 12 -12
13 -15 2 -12 -8 1 -14 -2 -14 -7 0 -5 5 -9 11 -7 14 3 27 -26 18 -40 -3 -5 4
-12 16 -15 16 -4 18 -8 8 -14 -11 -7 -11 -9 1 -9 11 0 11 -3 0 -17 -10 -11
-10 -14 -1 -9 7 4 12 2 12 -4 0 -6 5 -8 13 -4 7 5 6 0 -3 -11 -9 -11 -10 -16
-2 -11 7 4 12 2 12 -4 0 -7 7 -9 16 -6 8 3 12 2 9 -4 -3 -6 -1 -10 6 -10 8 0
8 -4 -1 -15 -10 -13 -10 -19 5 -35 10 -11 23 -20 29 -20 6 0 17 -9 24 -21 8
-12 9 -18 3 -14 -6 3 -11 1 -11 -4 0 -10 14 -15 33 -12 5 1 6 -3 2 -9 -3 -6
-10 -8 -14 -6 -4 3 -8 -1 -8 -8 0 -8 6 -12 14 -9 7 3 13 0 13 -7 0 -6 5 -8 13
-4 7 5 6 0 -3 -11 -9 -11 -10 -16 -2 -11 6 4 12 3 12 -3 0 -5 -6 -12 -12 -15
-7 -3 -3 -3 10 0 16 4 22 1 22 -11 0 -9 -4 -13 -10 -10 -5 3 -10 1 -10 -4 0
-14 13 -14 28 1 16 16 16 -4 0 -21 -11 -11 -9 -11 12 -1 14 7 22 9 17 5 -4 -5
5 -22 20 -38 16 -17 22 -27 16 -23 -7 4 -13 2 -13 -4 0 -6 -4 -8 -10 -5 -16
10 -11 -1 7 -16 11 -10 14 -10 9 -1 -11 19 3 14 27 -9 14 -15 17 -20 6 -16 -9
3 -16 0 -16 -9 0 -7 3 -12 6 -10 16 10 51 -15 51 -36 0 -19 2 -20 11 -8 8 12
10 9 6 -12 -5 -33 8 -48 43 -48 5 0 6 -7 3 -17 -4 -11 -3 -14 5 -9 8 5 12 0
12 -12 0 -11 7 -23 16 -26 15 -6 15 -4 3 11 -13 16 -12 17 4 4 12 -10 14 -17
7 -26 -8 -9 -4 -12 15 -10 14 2 23 -1 19 -6 -3 -5 -9 -7 -13 -5 -4 3 -8 -1 -8
-8 0 -8 9 -12 21 -10 12 3 15 1 8 -2 -9 -4 -5 -13 15 -31 15 -14 22 -22 16
-19 -7 4 -13 2 -13 -3 0 -6 7 -11 15 -11 8 0 15 -5 15 -11 0 -8 4 -8 14 0 11
9 12 6 8 -16 -4 -22 -2 -25 12 -20 10 4 15 3 11 -3 -3 -6 -1 -10 4 -10 6 0 11
-7 11 -15 0 -10 6 -12 18 -8 15 6 16 5 2 -13 -8 -10 -11 -16 -6 -12 11 10 50
-28 41 -41 -3 -6 -2 -11 4 -11 5 0 12 6 14 13 3 6 6 3 6 -8 1 -12 13 -25 32
-34 16 -7 28 -16 25 -19 -3 -2 -12 1 -21 8 -8 7 -15 8 -15 2 0 -10 29 -26 42
-24 4 1 4 -6 1 -15 -4 -11 -3 -14 5 -9 7 4 12 1 12 -9 0 -8 7 -18 15 -21 8 -4
12 -11 8 -18 -4 -6 2 -4 12 4 11 9 16 10 11 3 -4 -7 -2 -13 3 -13 6 0 11 -6
11 -13 0 -7 7 -22 16 -33 14 -18 15 -18 4 4 -7 13 -9 26 -7 28 3 3 11 -8 18
-25 7 -16 16 -28 19 -26 8 5 21 -5 45 -35 l20 -25 -26 23 c-28 24 -39 28 -39
11 0 -5 4 -8 9 -5 4 3 16 -3 26 -14 9 -10 23 -16 30 -14 9 4 13 -2 11 -19 -2
-17 1 -24 10 -20 7 2 10 11 8 18 -3 7 0 16 7 21 8 4 10 3 5 -5 -4 -6 -2 -19 6
-28 11 -14 11 -16 -2 -8 -10 5 -12 5 -5 -3 6 -5 19 -12 30 -14 11 -2 19 -10
17 -16 -1 -7 3 -12 9 -12 5 0 7 -5 3 -12 -5 -7 -2 -9 9 -5 15 6 32 -17 22 -32
-2 -4 2 -8 9 -8 8 0 12 7 9 16 -3 12 -2 12 7 -2 6 -9 9 -21 5 -26 -3 -5 0 -13
6 -17 8 -4 9 -3 5 4 -4 7 -2 12 3 12 6 0 11 -5 11 -11 0 -5 6 -7 13 -3 7 5 7
2 -2 -10 -8 -9 -10 -16 -5 -15 21 4 34 -2 34 -16 0 -8 7 -15 15 -15 9 0 18 -7
21 -15 3 -8 14 -17 25 -20 11 -4 16 -11 12 -18 -3 -7 4 -3 17 8 l23 20 -12
-22 c-6 -13 -9 -24 -6 -24 3 -1 10 -3 15 -4 6 -1 15 -3 20 -4 6 0 10 -6 10
-12 0 -5 -5 -7 -12 -3 -7 4 -8 3 -4 -5 4 -6 13 -8 19 -4 20 13 34 11 34 -3 0
-9 -4 -11 -12 -4 -8 7 -12 5 -12 -3 0 -7 10 -14 21 -15 11 0 22 -6 24 -12 2
-5 8 -8 13 -4 5 3 9 0 9 -5 0 -6 -5 -11 -12 -11 -6 0 -8 -3 -5 -6 4 -4 14 -1
24 7 15 12 16 12 10 -5 -6 -16 -5 -17 8 -6 9 7 15 9 13 4 -5 -17 48 -64 59
-53 7 7 9 2 8 -15 -2 -15 1 -24 5 -21 5 3 12 1 15 -5 5 -8 11 -8 20 0 10 8 15
8 21 -1 5 -8 3 -10 -7 -5 -8 4 -5 1 5 -8 10 -8 22 -13 27 -11 4 3 10 1 14 -5
4 -6 12 -7 18 -3 8 5 8 2 -1 -9 -10 -12 -9 -18 3 -28 9 -7 15 -8 15 -2 0 6 -6
13 -12 15 -10 4 -10 6 0 6 18 1 54 -37 39 -42 -6 -2 -1 -6 11 -9 14 -4 20 -2
15 4 -4 7 -1 8 6 4 7 -5 10 -15 7 -23 -4 -11 -2 -13 9 -10 8 4 17 1 21 -5 4
-7 10 -6 16 3 7 10 8 8 5 -8 -4 -16 -1 -20 11 -16 10 4 13 2 8 -5 -3 -6 -1
-14 5 -18 8 -4 9 -3 5 4 -4 7 -3 12 3 12 5 0 14 -12 20 -27 l11 -28 -5 29 c-6
26 -5 27 10 12 9 -9 21 -13 27 -10 7 4 8 2 4 -5 -4 -6 -13 -8 -19 -5 -7 4 -7
2 1 -7 7 -8 18 -14 25 -14 7 0 12 -5 12 -12 0 -6 3 -15 7 -18 4 -4 5 5 3 21
l-5 29 16 -28 c11 -20 21 -27 34 -24 13 3 17 1 13 -10 -4 -9 0 -14 8 -13 26 4
40 0 35 -9 -6 -10 23 -26 39 -22 5 1 15 -6 22 -15 7 -10 13 -12 13 -6 0 7 5
12 11 12 6 0 9 -6 6 -14 -4 -9 5 -21 20 -31 14 -10 22 -12 19 -6 -4 6 0 11 9
11 12 0 15 -6 11 -22 -3 -13 -3 -17 0 -10 3 6 12 12 20 12 9 0 13 -4 10 -9 -3
-5 1 -12 10 -15 10 -4 13 -2 8 6 -5 8 -2 9 10 5 10 -4 20 -7 23 -7 3 0 0 -7
-7 -15 -10 -12 -7 -13 20 -5 29 8 30 8 18 -7 -7 -9 -8 -14 -2 -10 7 4 14 0 18
-8 8 -21 26 -19 27 3 0 14 2 13 9 -4 4 -12 16 -24 25 -27 9 -4 14 -3 11 1 -2
4 4 8 14 8 10 0 17 -3 16 -6 -2 -3 5 -13 14 -23 13 -14 20 -15 26 -6 5 8 3 10
-6 4 -9 -5 -11 -4 -6 3 11 19 26 14 26 -9 0 -11 5 -17 10 -14 6 3 10 1 10 -5
0 -7 7 -7 23 1 20 11 21 11 8 -5 -12 -15 -12 -17 0 -14 8 2 13 -3 11 -12 -2
-8 0 -11 5 -7 4 5 8 14 8 19 0 6 7 13 15 15 13 4 13 3 0 -6 -14 -10 -7 -16 14
-12 5 1 6 -5 2 -14 -4 -12 -2 -13 12 -6 11 6 24 6 33 0 7 -5 10 -9 4 -10 -5 0
6 -6 25 -13 24 -9 41 -10 55 -3 16 8 18 7 8 -4 -17 -18 -16 -34 1 -20 10 9 17
7 27 -6 13 -17 13 -17 -6 -3 -19 14 -19 14 -6 -3 14 -18 16 -18 28 -1 13 18
17 12 14 -26 0 -10 1 -11 5 -2 3 7 15 17 27 23 20 9 21 9 4 -4 -15 -13 -16
-15 -2 -21 8 -3 15 0 15 7 1 7 8 1 16 -13 8 -14 13 -17 10 -7 -4 11 -2 16 5
12 5 -4 18 -1 27 6 14 11 15 11 5 -1 -18 -19 -16 -35 1 -21 11 9 16 9 22 0 4
-7 3 -9 -3 -6 -5 3 -10 1 -10 -6 0 -7 10 -12 23 -12 12 0 20 3 18 6 -1 3 4 6
12 6 8 0 13 -6 10 -13 -3 -8 0 -11 10 -7 7 3 14 9 14 15 0 5 5 6 11 2 8 -4 6
-10 -6 -17 -13 -7 -14 -11 -5 -17 17 -10 51 0 43 13 -3 6 -1 7 6 3 6 -4 9 -11
6 -16 -3 -5 -1 -11 5 -15 5 -3 10 1 10 10 0 9 5 13 10 10 6 -4 7 -11 4 -17 -4
-5 4 -4 17 2 13 7 21 9 17 5 -9 -10 15 -34 27 -27 5 3 18 7 27 7 14 1 15 -1 7
-12 -17 -19 -3 -16 17 5 17 16 17 16 12 -5 -4 -17 -2 -20 10 -16 11 5 13 3 7
-8 -8 -12 -6 -12 8 0 9 7 17 9 17 3 0 -5 10 -8 22 -4 11 3 19 1 16 -4 -4 -5 4
-9 17 -9 13 0 21 3 19 7 -2 3 4 5 13 3 11 -1 17 -9 15 -21 -3 -15 -1 -16 11
-5 12 9 17 9 23 0 5 -8 3 -9 -6 -4 -9 5 -11 4 -6 -3 5 -9 15 -7 34 5 21 14 24
14 15 2 -10 -12 -8 -15 7 -15 10 0 17 4 14 7 -2 4 1 11 7 15 7 4 10 3 6 -2 -3
-5 1 -18 9 -29 8 -10 14 -13 14 -7 0 9 6 8 23 -2 33 -22 33 -22 50 -7 14 11
17 11 18 0 1 -8 1 -18 0 -22 -1 -5 3 -6 9 -2 6 3 8 10 5 15 -3 5 -1 11 4 14 5
3 11 0 14 -8 4 -9 17 -12 37 -10 21 3 29 0 24 -8 -5 -7 2 -9 20 -6 22 4 26 2
22 -11 -4 -11 -2 -10 9 3 8 11 15 15 15 9 0 -6 9 -9 20 -6 13 3 20 0 20 -8 0
-11 2 -11 9 0 5 8 17 16 25 17 9 1 14 -2 10 -7 -3 -5 0 -9 5 -9 6 0 11 6 11
13 0 8 3 8 9 -2 5 -8 16 -11 27 -7 13 4 11 0 -6 -14 l-25 -20 34 11 c26 9 35
9 41 -2 7 -10 11 -10 24 0 13 11 16 11 16 0 0 -10 3 -10 12 -1 15 15 28 15 28
1 0 -5 -6 -7 -12 -3 -9 5 -9 2 1 -9 14 -18 23 -22 19 -9 -2 4 0 7 3 7 3 0 13
6 22 13 12 10 17 10 23 1 4 -7 3 -9 -3 -6 -5 3 -10 0 -10 -8 0 -13 3 -13 16
-1 9 7 22 11 29 9 7 -3 20 1 30 8 14 11 15 11 5 -1 -18 -19 -16 -26 7 -27 11
-1 20 3 20 8 0 6 -5 7 -12 3 -7 -5 -8 -3 -3 5 5 9 13 7 28 -9 18 -20 21 -20
29 -6 10 18 28 22 28 5 0 -5 -4 -7 -10 -4 -5 3 -10 2 -10 -3 0 -5 13 -9 30 -9
18 0 27 4 23 11 -4 6 1 5 10 -3 15 -12 17 -11 17 5 1 16 2 17 10 4 8 -15 44
-17 112 -7 15 2 27 1 26 -2 -2 -20 4 -20 22 0 14 17 18 19 14 7 -3 -10 -1 -18
5 -18 6 0 11 5 11 12 0 6 6 4 13 -6 13 -17 52 -13 41 5 -3 5 2 6 10 3 9 -3 13
-11 9 -18 -3 -6 -1 -6 8 1 14 14 63 18 55 5 -2 -4 4 -8 14 -8 13 0 16 4 10 11
-14 17 24 12 46 -6 11 -9 15 -9 10 -1 -4 6 -4 12 1 13 4 0 18 2 31 3 13 2 26
-2 29 -7 4 -6 1 -7 -7 -2 -9 5 -11 4 -6 -4 11 -16 28 -2 22 18 -5 14 -4 13 8
-2 15 -20 27 -22 22 -4 -1 6 -1 9 1 4 3 -4 10 -4 15 -1 6 4 8 2 5 -3 -4 -6 0
-14 9 -17 8 -3 12 -2 9 4 -3 5 13 8 40 6 37 -2 45 0 40 12 -5 13 -3 13 11 1
10 -8 24 -14 33 -14 9 0 22 -4 30 -9 10 -6 12 -5 7 2 -4 7 4 14 20 18 19 5 22
9 12 15 -19 12 0 11 23 -2 11 -6 17 -15 13 -22 -4 -7 2 -4 14 7 12 10 19 24
15 30 -4 6 0 5 9 -2 10 -8 19 -9 22 -3 7 10 24 10 43 -2 6 -4 15 -2 19 4 4 8
9 7 15 -2 6 -11 14 -8 36 11 15 14 22 18 16 10 -17 -19 -17 -35 0 -21 10 8 17
7 26 -2 10 -9 11 -9 6 4 -4 10 -1 20 6 25 7 4 10 3 6 -3 -4 -6 2 -13 14 -16
17 -5 18 -3 7 11 -7 9 -9 14 -4 10 5 -4 17 -3 27 3 14 7 19 6 19 -3 0 -9 3 -9
10 2 8 12 10 12 10 -5 0 -16 2 -17 9 -5 6 8 7 18 4 24 -4 5 -1 6 8 0 8 -5 39
-9 70 -9 48 -1 56 1 52 16 -3 9 0 20 6 23 7 5 8 1 4 -11 -6 -16 -5 -17 12 -3
11 9 16 10 11 3 -4 -7 -2 -13 3 -13 6 0 11 5 11 11 0 8 6 7 17 -2 11 -10 14
-10 9 -1 -4 6 -3 12 3 12 5 0 12 -6 14 -12 4 -10 6 -9 6 1 1 10 4 11 15 2 11
-9 18 -8 30 4 9 9 14 20 12 24 -6 10 25 8 42 -3 7 -4 12 -2 12 5 0 7 3 9 7 6
3 -4 13 -1 21 6 13 10 15 9 9 -7 -6 -15 -5 -17 6 -8 8 7 18 8 22 4 5 -4 5 -1
0 7 -6 11 -3 13 14 8 17 -4 20 -2 12 7 -7 9 -3 12 17 13 71 2 82 4 82 14 0 5
-5 7 -12 3 -7 -4 -8 -3 -4 4 4 6 13 9 21 5 9 -3 23 1 32 8 12 10 15 10 9 2 -8
-14 6 -18 18 -6 12 12 36 12 36 0 0 -6 7 -2 15 10 10 14 22 19 35 16 12 -3 20
0 20 6 0 7 5 9 12 5 7 -5 20 -9 30 -9 13 -1 15 3 8 15 -6 12 -4 16 11 17 12 1
17 -3 13 -10 -3 -7 1 -4 9 6 11 14 16 15 20 5 4 -11 6 -11 6 0 1 7 6 10 11 7
6 -3 10 -1 10 5 0 6 5 8 10 5 6 -4 7 -11 4 -17 -4 -6 -2 -8 4 -4 6 3 9 15 7
25 -3 16 1 18 31 11 30 -7 33 -6 23 7 -10 11 -10 14 2 11 8 -2 18 -7 22 -13 5
-6 7 0 4 13 -4 18 -3 21 8 12 15 -13 47 -2 39 14 -3 6 1 3 9 -7 13 -16 15 -16
21 -2 4 11 2 14 -7 9 -9 -5 -8 -3 1 7 11 12 14 12 22 -1 7 -11 10 -11 10 -2 0
8 5 10 13 6 9 -6 9 -4 -1 8 -11 13 -10 16 5 14 10 0 21 -5 25 -11 5 -6 8 -3 8
7 0 9 5 20 12 24 7 5 9 2 4 -7 -4 -8 -2 -7 6 2 10 12 19 14 36 8 13 -5 21 -5
18 0 -3 5 1 12 10 15 8 3 13 10 10 14 -3 5 1 9 9 9 8 0 12 -3 10 -7 -2 -4 2
-7 10 -7 8 0 12 4 9 9 -3 4 -1 8 5 8 5 0 12 -6 15 -12 3 -7 4 -4 3 7 -1 11 -6
24 -12 28 -6 5 -3 7 7 3 10 -3 20 -1 24 5 4 6 12 5 22 -3 13 -11 15 -11 10 3
-5 13 -2 16 13 12 10 -3 19 0 19 6 0 6 5 11 11 11 5 0 7 -6 3 -12 -6 -9 -3 -9
9 0 9 8 21 11 26 7 7 -3 8 0 5 9 -4 11 0 14 15 11 13 -2 18 1 15 10 -4 10 2
13 21 11 20 -3 25 0 20 12 -4 12 -1 12 17 -3 13 -11 17 -13 11 -5 -18 20 -16
31 4 23 11 -4 14 -3 9 5 -4 7 -3 12 3 12 5 0 11 -6 14 -12 3 -10 8 -10 18 1
12 12 12 13 0 6 -9 -5 -12 -3 -9 5 2 7 12 14 21 16 9 1 15 -2 11 -7 -3 -5 -1
-9 4 -9 5 0 12 10 15 21 4 14 11 20 20 16 8 -3 20 0 26 6 6 6 11 7 11 2 0 -4
9 0 20 10 11 10 17 23 13 29 -4 6 2 4 12 -4 13 -10 16 -11 11 -2 -5 9 -1 15
13 19 11 3 19 9 16 13 -3 5 -1 11 5 15 5 3 10 2 10 -3 0 -14 28 -23 35 -12 3
5 0 12 -6 16 -8 5 -9 3 -4 -6 5 -9 4 -11 -4 -6 -6 4 -9 12 -5 17 3 6 8 8 12 5
3 -3 11 2 19 12 13 15 13 15 8 -8 -5 -19 -4 -21 4 -10 6 8 16 15 23 15 7 1 12
7 10 14 -2 9 3 11 14 7 12 -5 15 -2 12 12 -4 13 1 18 18 20 53 4 54 5 42 19
-6 7 -8 16 -4 20 3 3 6 1 6 -5 0 -7 5 -12 11 -12 5 0 7 5 3 12 -4 7 -3 8 4 4
7 -4 12 -2 12 4 0 7 7 7 23 -1 21 -12 21 -11 7 6 -14 17 -13 18 4 12 16 -6 17
-5 6 8 -11 13 -11 16 1 13 8 -2 17 -7 21 -13 4 -5 8 0 8 13 0 13 6 22 13 21
24 -3 37 1 37 12 0 5 -5 7 -11 4 -6 -4 -5 2 3 14 7 12 14 17 16 11 2 -6 9 -7
14 -4 7 4 8 2 4 -5 -4 -6 -12 -9 -17 -6 -15 10 -10 -2 8 -16 9 -8 14 -9 10 -3
-4 7 0 17 8 24 8 7 12 17 8 24 -4 6 1 5 10 -3 15 -12 17 -12 11 4 -6 14 -4 16
6 10 10 -6 12 -4 7 11 -7 18 -6 18 9 -1 16 -20 16 -20 11 1 -2 12 0 28 5 35 8
11 9 10 5 -3 -4 -12 0 -16 12 -15 12 1 17 6 13 16 -3 9 -1 12 6 7 7 -4 12 -2
12 5 0 8 5 8 18 -2 9 -7 14 -9 10 -5 -5 5 1 15 12 23 11 8 20 21 20 29 0 8 5
12 11 9 6 -4 8 -14 5 -22 -3 -8 -1 -11 5 -8 5 4 7 15 4 26 -5 15 -3 18 12 12
16 -6 17 -5 3 12 -14 17 -14 18 7 7 20 -11 21 -10 17 13 -2 14 0 25 6 25 6 0
8 -4 5 -10 -3 -5 -1 -10 4 -10 6 0 11 5 11 11 0 6 11 20 25 31 14 11 22 24 19
30 -5 7 -2 8 5 4 9 -6 8 -13 -6 -29 -12 -15 -13 -18 -2 -9 9 6 19 8 23 4 4 -4
6 0 4 8 -2 9 3 14 11 12 11 -2 12 0 3 11 -15 17 -3 31 14 16 9 -8 12 -4 9 17
-3 27 -2 27 12 9 15 -19 15 -18 10 10 -4 17 -4 24 -1 18 3 -7 12 -13 19 -13
17 0 27 27 12 34 -7 3 -3 4 9 1 13 -4 28 3 44 20 21 22 22 28 10 36 -11 8 -10
9 8 4 18 -5 22 -2 23 17 0 13 3 17 6 10 2 -6 9 -9 14 -6 6 3 5 12 -3 22 -12
13 -10 14 9 4 16 -9 24 -9 29 0 4 6 3 8 -3 5 -6 -4 -13 -1 -16 7 -4 9 0 12 12
9 9 -2 25 6 36 18 l20 22 -30 -18 c-16 -9 -22 -11 -13 -3 10 8 15 18 12 21 -4
3 6 4 21 1 19 -3 24 -1 19 7 -5 9 -2 10 10 6 9 -4 15 -3 12 1 -3 5 2 19 10 31
11 15 22 20 37 16 12 -2 16 -2 10 1 -19 8 -16 27 3 20 8 -3 13 -2 9 3 -3 5 1
12 7 14 10 4 10 6 1 6 -7 1 -13 5 -13 11 0 5 7 6 17 3 11 -5 14 -3 8 6 -5 10
-2 11 13 7 17 -6 20 -3 18 19 -3 19 0 23 9 15 9 -7 16 -6 24 4 9 11 9 16 0 22
-8 5 -9 3 -4 -6 5 -9 4 -11 -4 -6 -17 11 -4 25 20 21 18 -4 19 -2 7 12 -11 15
-11 16 6 10 14 -6 17 -4 12 8 -3 9 0 15 10 15 11 0 14 6 10 16 -3 8 -2 12 4 9
6 -3 13 1 16 10 6 14 9 14 28 -2 13 -11 16 -12 9 -3 -7 10 -8 21 -3 30 5 8 6
19 2 25 -3 5 1 4 10 -3 13 -10 18 -10 24 -1 4 7 3 9 -3 6 -6 -4 -13 0 -17 8
-3 8 0 17 6 21 6 4 8 3 4 -4 -4 -7 1 -10 14 -9 25 2 25 6 3 23 -17 13 -17 14
1 7 15 -5 17 -3 11 8 -7 11 -5 11 10 -1 11 -9 16 -10 11 -2 -4 6 -3 12 2 12 6
0 13 8 17 18 5 14 4 15 -6 5 -7 -7 -17 -13 -22 -13 -5 0 1 9 14 19 17 14 26
16 31 8 7 -11 13 24 9 47 -1 5 4 4 13 -3 11 -9 16 -9 22 0 4 7 3 9 -3 6 -6 -4
-13 -1 -16 7 -4 10 0 12 14 9 14 -4 19 0 19 16 0 12 6 21 15 21 8 0 15 5 15
11 0 5 -4 7 -10 4 -5 -3 -10 -2 -10 4 0 6 12 9 27 8 14 -1 28 4 30 11 3 6 0
12 -7 12 -6 0 -8 -5 -4 -12 4 -7 3 -8 -4 -4 -6 4 -9 13 -6 21 4 8 10 12 15 9
5 -3 9 0 9 6 0 6 5 8 13 4 9 -6 9 -4 -1 8 -11 14 -10 16 7 11 13 -3 21 -1 21
6 0 7 -5 9 -12 5 -10 -6 -10 -5 -1 8 7 8 9 18 5 23 -4 4 4 2 17 -5 13 -6 21
-8 17 -2 -3 5 0 15 8 21 7 6 12 23 10 37 -2 20 0 24 9 15 14 -14 27 -14 27 0
0 5 -4 7 -10 4 -6 -3 -9 4 -8 19 1 13 7 24 13 23 5 -1 9 4 7 12 -2 9 3 11 14
7 12 -4 15 -2 10 9 -4 11 1 15 17 15 22 1 22 1 2 17 -14 11 -15 14 -4 10 20
-7 66 37 50 48 -6 3 -11 12 -11 18 0 8 4 7 9 -2 8 -12 12 -13 25 -2 13 11 14
16 4 29 -11 13 -10 15 4 9 20 -7 34 8 17 19 -8 5 -9 3 -4 -6 5 -9 4 -11 -4 -6
-17 11 -4 25 20 21 16 -3 18 -1 10 9 -9 10 -7 16 6 21 10 5 22 7 26 6 5 -1 6
3 2 9 -5 8 -11 8 -20 0 -10 -8 -15 -8 -21 2 -4 7 -4 10 1 6 4 -4 14 0 22 8 8
8 19 11 25 8 5 -4 2 6 -8 22 l-18 29 21 -18 c18 -16 21 -16 27 -2 3 9 2 14 -3
11 -5 -3 -11 1 -14 9 -4 9 -1 12 9 8 17 -6 18 8 2 26 -11 11 -9 11 9 2 14 -7
24 -8 28 -1 3 5 1 10 -4 10 -6 0 -3 9 6 19 9 11 20 18 24 15 4 -2 5 6 1 18 -3
14 -1 19 6 14 6 -3 14 -1 18 5 4 8 3 9 -4 5 -7 -4 -12 -2 -12 4 0 6 -5 8 -12
4 -7 -4 -8 -3 -4 4 4 6 14 8 22 5 14 -5 15 -3 4 18 -12 21 -11 22 2 12 19 -17
31 -4 15 15 -10 13 -9 14 1 8 9 -6 12 -3 10 10 -2 13 3 19 15 18 18 -2 18 -1
0 19 l-18 21 29 -18 29 -19 -24 34 c-18 27 -19 31 -4 19 17 -14 18 -13 12 2
-3 10 -1 20 5 24 7 5 8 2 3 -6 -6 -9 -4 -11 4 -6 7 5 10 14 7 21 -2 7 3 15 13
18 10 2 18 11 18 20 0 9 -5 13 -11 10 -6 -4 -5 0 1 9 7 8 9 18 5 23 -4 4 3 2
16 -4 28 -15 28 -8 1 18 l-21 20 22 -6 c17 -5 21 -3 15 7 -5 8 -2 17 6 24 8 6
21 20 29 31 14 19 14 20 -6 3 -11 -10 -24 -18 -29 -18 -5 0 -1 6 10 13 10 8
15 19 11 25 -5 8 -1 10 11 5 16 -6 16 -5 4 10 -12 15 -12 17 3 11 11 -4 16 -1
16 11 0 10 4 13 13 9 7 -5 6 0 -3 11 -14 17 -13 18 2 12 12 -4 15 -2 11 8 -3
8 -10 12 -16 8 -6 -3 -7 -1 -3 6 4 6 12 8 18 5 6 -4 9 -1 6 7 -3 8 2 20 11 27
14 12 14 13 -1 8 -15 -4 -16 -2 -6 14 7 10 16 16 20 14 7 -4 13 34 9 58 0 4 7
4 17 1 14 -6 15 -4 4 9 -9 11 -10 18 -2 23 6 3 8 10 5 15 -3 5 3 14 14 19 13
8 18 18 14 33 -3 14 -1 18 4 11 6 -8 12 -4 20 13 6 14 7 21 1 18 -6 -4 -8 1
-3 15 4 13 2 21 -5 21 -6 0 -8 5 -4 11 4 8 12 3 20 -12 12 -21 13 -21 11 -4
-1 11 -6 26 -10 32 -5 9 -3 11 6 7 8 -3 18 0 23 7 4 7 3 10 -3 6 -6 -4 -13 0
-17 8 -3 8 3 19 12 24 14 8 14 10 2 11 -13 0 -13 1 0 10 13 9 13 11 0 20 -8 5
-10 10 -5 10 6 0 17 -6 24 -12 10 -11 12 -10 9 2 -2 8 -7 18 -12 21 -4 4 1 16
12 27 20 20 22 47 6 74 -4 6 -3 9 2 6 5 -3 15 0 22 8 10 11 10 14 0 14 -11 0
-11 2 0 8 7 5 14 18 17 31 2 12 0 19 -5 16 -5 -3 -12 0 -16 6 -4 7 -3 10 2 6
5 -3 18 1 29 9 16 12 17 14 2 14 -9 0 -17 4 -17 10 0 5 7 7 16 3 14 -5 15 -3
5 16 -7 12 -8 21 -4 20 20 -3 27 2 13 11 -10 6 -11 10 -2 10 6 0 12 12 12 26
0 14 4 23 10 19 6 -3 10 -2 10 4 0 5 -6 12 -12 14 -10 4 -10 6 0 6 7 1 10 6 7
11 -3 6 -1 10 4 10 6 0 11 5 11 10 0 7 -7 7 -22 0 l-23 -11 23 20 c26 23 28
33 5 24 -17 -7 -17 -6 0 11 9 9 17 22 17 27 0 5 8 9 18 10 14 0 14 2 -3 9
l-20 9 20 1 c11 1 14 4 8 7 -7 2 -13 11 -13 19 0 9 4 13 9 10 11 -7 8 21 -4
31 -4 4 -5 2 0 -6 6 -10 4 -12 -5 -6 -10 6 -9 11 6 22 16 12 17 15 4 24 -11 8
-7 9 15 5 17 -4 25 -3 20 1 -9 7 -12 27 -5 36 6 8 5 45 -2 41 -4 -3 -8 2 -8
10 0 9 8 16 18 17 13 0 11 3 -6 10 -24 9 -22 29 4 29 8 0 12 5 9 10 -4 6 -12
7 -18 3 -14 -8 11 26 33 45 8 8 9 11 3 7 -7 -3 -13 -1 -13 5 0 6 -5 8 -12 4
-7 -4 -8 -3 -4 5 4 6 11 9 16 6 5 -3 11 -1 15 5 3 5 1 10 -6 10 -10 0 -10 3
-2 11 14 14 5 42 -10 32 -6 -4 -7 -1 -3 6 5 7 15 10 23 6 12 -4 13 -2 6 7 -6
7 -9 32 -8 56 2 28 0 40 -7 35 -7 -4 -8 -1 -4 6 5 7 14 10 22 7 9 -3 11 0 7
11 -5 12 -3 14 8 8 11 -6 11 -5 2 5 -6 7 -9 19 -6 26 4 10 0 12 -13 8 -11 -3
-15 -2 -8 3 6 4 10 18 9 30 -1 12 2 20 7 17 4 -3 8 2 8 10 0 9 -6 16 -12 17
-7 1 -2 5 12 9 16 5 19 8 8 9 -9 1 -20 5 -23 11 -3 5 0 7 8 4 15 -5 17 30 2
43 -4 5 -5 2 0 -6 5 -10 4 -12 -4 -7 -16 10 -4 26 16 19 13 -5 12 -1 -3 23
-11 15 -13 25 -6 21 6 -5 12 -5 13 0 0 4 2 16 4 26 2 9 -1 15 -5 12 -5 -3 -11
-1 -15 5 -3 5 -1 10 5 10 6 0 8 5 5 10 -4 6 -11 7 -17 4 -7 -4 -8 -2 -4 5 4 6
11 9 16 6 4 -3 10 2 14 10 3 8 0 17 -6 21 -7 5 -8 2 -3 -7 5 -8 4 -11 0 -6 -5
4 -9 16 -10 27 -1 15 2 17 11 9 9 -8 11 -5 7 10 -3 12 -10 18 -17 14 -6 -4 -3
5 6 19 10 16 14 29 8 33 -5 3 -9 26 -8 51 0 37 3 44 17 39 9 -3 5 4 -9 16 -14
11 -18 19 -9 16 9 -3 16 1 16 9 0 7 -4 11 -8 9 -4 -3 -9 2 -13 10 -3 8 -1 17
4 20 17 10 11 25 -7 19 -15 -5 -16 -4 -3 5 13 10 13 12 0 21 -11 7 -11 10 -2
10 8 0 10 5 6 12 -5 8 -1 9 12 5 15 -6 13 -2 -6 15 -16 14 -19 19 -7 15 21 -8
22 6 2 23 -8 7 -15 17 -15 23 0 6 6 3 13 -8 11 -14 16 -15 22 -5 5 9 4 11 -3
6 -14 -9 -14 73 0 91 5 7 5 14 -2 18 -5 3 -10 20 -10 36 0 17 -4 28 -9 24 -5
-3 -13 0 -17 6 -4 8 -3 9 4 5 7 -4 12 -2 12 4 0 6 5 8 12 4 13 -8 3 11 -21 40
-9 11 -11 16 -5 13 12 -7 29 21 19 31 -3 3 -5 0 -5 -6 0 -7 -4 -12 -10 -12 -5
0 -7 7 -4 15 4 8 1 21 -5 29 -9 10 -7 16 4 26 14 12 13 15 -5 32 -22 20 -28
37 -7 20 9 -8 12 -4 13 14 2 18 -1 22 -10 15 -10 -8 -11 -3 -8 22 3 17 10 36
16 40 7 5 3 7 -10 4 -13 -3 -21 1 -21 9 0 7 4 11 9 8 4 -3 8 2 8 11 0 12 -5
15 -17 11 -16 -5 -16 -4 -3 6 18 16 20 50 2 56 -10 3 -10 7 -1 18 7 8 9 17 5
21 -3 3 -6 1 -6 -5 0 -7 -4 -12 -10 -12 -6 0 -6 9 0 26 13 33 13 37 -1 28 -7
-4 -10 -1 -7 7 3 8 -2 23 -11 34 -15 18 -15 19 2 6 9 -8 20 -11 24 -7 3 3 1 6
-5 6 -7 0 -12 7 -12 16 0 8 -4 13 -9 9 -5 -3 -13 0 -17 6 -4 7 -3 9 4 5 16
-10 26 14 12 27 -10 9 -11 9 -5 -2 5 -9 4 -12 -3 -7 -9 5 -9 13 -2 26 7 13 7
21 -1 25 -6 5 -4 12 8 22 10 8 12 12 6 8 -12 -6 -16 4 -16 47 0 9 -5 16 -11
15 -5 -1 -10 10 -10 25 1 15 -3 25 -7 22 -5 -3 -9 0 -9 5 0 6 5 11 12 11 6 0
4 6 -6 13 -18 13 -18 14 0 31 17 18 17 18 -6 11 -14 -4 -22 -4 -18 0 4 5 2 15
-5 23 -9 13 -9 14 1 8 9 -5 11 -1 8 16 -3 13 -5 29 -5 36 -1 8 -6 10 -13 6 -8
-5 -7 0 2 11 14 17 13 18 -2 12 -13 -4 -15 -2 -11 10 5 12 3 14 -8 8 -8 -4
-11 -5 -7 0 4 4 3 17 -3 29 -10 21 -10 21 7 1 l17 -20 -8 20 c-5 11 -9 30 -9
42 -1 11 -4 19 -7 17 -9 -5 -23 27 -20 45 1 7 -2 11 -6 8 -5 -3 -10 4 -10 16
-2 17 0 18 7 7 5 -8 12 -12 15 -8 3 3 -1 13 -10 21 -18 18 -20 31 -3 21 7 -4
8 -3 4 5 -4 6 -12 9 -17 6 -5 -4 -9 -1 -9 5 0 6 -6 8 -12 5 -7 -4 -5 0 5 8 13
11 15 16 5 19 -10 4 -10 8 1 22 12 15 12 17 0 14 -8 -2 -13 3 -11 10 2 10 -4
12 -20 7 -23 -7 -23 -7 -3 10 11 9 14 13 6 9 -10 -5 -11 -1 -7 14 4 12 2 23
-5 28 -8 5 -9 3 -4 -7 8 -12 6 -12 -8 0 -11 8 -14 19 -9 30 10 20 9 31 -6 57
-6 12 -8 25 -4 30 4 5 -1 2 -11 -5 -15 -12 -17 -12 -11 3 3 9 11 16 17 16 6 0
7 3 4 6 -4 4 -13 1 -22 -6 -18 -15 -19 -7 -5 21 9 15 7 21 -7 27 -10 4 -19 13
-20 20 -3 14 13 16 20 2 3 -6 4 -5 3 2 -1 7 -12 14 -24 16 -12 2 -22 7 -22 12
0 5 8 7 18 3 10 -3 6 2 -8 13 -14 10 -29 18 -33 16 -5 -1 -6 2 -2 8 3 6 11 8
16 5 14 -9 11 5 -6 21 -8 8 -12 21 -9 29 4 10 0 15 -12 15 -16 0 -17 2 -4 10
11 7 11 10 2 10 -7 0 -10 5 -7 10 3 6 1 10 -6 10 -6 0 -9 8 -6 20 3 11 0 23
-5 27 -6 3 -8 1 -4 -5 3 -6 2 -13 -3 -17 -6 -3 -8 5 -5 20 5 27 -23 68 -40 58
-6 -4 -2 4 9 16 11 12 15 22 10 21 -21 -5 -36 0 -30 10 3 6 1 10 -6 10 -7 0
-9 3 -6 6 4 4 13 2 20 -4 10 -9 14 -8 14 3 0 8 -4 12 -8 10 -4 -3 -18 4 -30
16 -13 11 -18 18 -11 14 18 -9 15 3 -8 27 -11 12 -19 27 -19 32 3 25 -2 37
-11 31 -5 -3 -10 -3 -11 2 -5 46 -8 56 -19 63 -7 5 -9 13 -4 21 6 10 3 10 -11
-1 -10 -8 -16 -10 -12 -3 4 6 2 15 -4 18 -5 4 -8 14 -4 22 4 12 2 13 -8 5 -10
-8 -13 -6 -13 8 0 10 5 16 11 13 5 -4 2 3 -8 14 -14 16 -15 22 -5 27 7 3 3 3
-9 1 -12 -3 -25 0 -29 6 -4 8 -3 9 4 5 20 -12 13 23 -8 44 -12 12 -18 25 -15
31 4 5 3 9 -2 8 -22 -4 -31 3 -26 21 4 15 0 20 -15 20 -11 0 -22 7 -26 15 -5
13 -2 14 17 4 22 -12 22 -12 4 9 -11 11 -27 19 -38 17 -13 -3 -17 0 -12 8 12
19 12 36 2 43 -6 3 -5 12 3 22 10 14 10 15 -2 5 -19 -18 -33 -16 -26 3 4 10 2
13 -6 8 -7 -5 -9 -2 -6 8 4 8 -3 20 -15 28 -20 12 -21 12 -8 -4 8 -9 11 -19 8
-23 -4 -3 -9 2 -13 11 -3 9 -11 13 -18 9 -6 -3 -6 -1 2 8 15 16 16 33 1 23 -8
-5 -8 -1 0 14 10 18 8 20 -14 17 -21 -2 -23 0 -14 12 7 7 9 16 5 20 -3 3 -6 1
-6 -5 0 -7 -5 -12 -11 -12 -5 0 -8 4 -4 9 3 6 -3 14 -12 20 -16 9 -16 10 -1
11 9 0 19 4 23 9 7 12 -35 8 -55 -4 -13 -7 -13 -6 -2 7 9 11 10 18 2 23 -5 3
-10 12 -10 18 0 7 5 4 11 -5 5 -10 15 -18 20 -18 6 0 3 8 -7 17 -9 10 -24 18
-33 18 -10 0 -15 7 -13 19 3 14 -1 17 -14 12 -15 -6 -15 -4 -3 11 12 15 12 16
-3 10 -10 -3 -20 -1 -24 5 -4 7 -3 8 4 4 16 -10 15 2 -2 19 -7 8 -17 11 -22 7
-5 -4 -3 0 4 9 10 14 10 18 -4 23 -14 5 -14 9 -3 23 12 15 12 16 -1 8 -25 -16
-43 -16 -30 0 8 10 6 15 -9 20 -12 3 -21 11 -21 16 0 12 -37 49 -50 49 -5 0
-10 5 -10 11 0 5 5 7 12 3 6 -4 8 -3 4 4 -3 6 -15 9 -26 7 -12 -2 -18 0 -15 5
3 4 -1 11 -7 14 -7 3 -2 3 11 0 16 -4 21 -3 17 5 -4 6 -14 11 -22 11 -13 0
-19 12 -15 33 1 5 -3 6 -9 2 -9 -6 -14 7 -11 27 0 5 -4 7 -11 5 -7 -1 -12 3
-13 10 0 6 -4 15 -9 20 -5 5 -6 3 -2 -4 4 -8 1 -13 -8 -13 -9 0 -15 3 -15 8 5
29 -2 34 -23 16 l-21 -19 19 29 c18 29 18 29 -2 18 -16 -9 -21 -8 -21 3 0 8 4
12 8 10 4 -3 5 4 2 15 -5 19 -6 19 -18 4 -9 -14 -14 -14 -20 -4 -5 9 -4 11 3
6 7 -4 12 -2 12 3 0 6 -5 11 -11 11 -5 0 -8 4 -5 9 4 5 -5 8 -20 6 -18 -2 -22
1 -15 8 17 17 13 31 -5 17 -9 -8 -14 -9 -12 -2 2 6 -13 25 -32 42 l-35 31 40
-26 c38 -26 39 -26 11 -2 -16 14 -26 29 -23 34 4 6 -4 8 -18 5 -21 -4 -24 -1
-20 19 4 22 3 22 -9 7 -18 -25 -29 -22 -15 3 7 13 7 19 1 15 -6 -3 -14 3 -17
14 -6 18 -9 19 -23 8 -13 -11 -15 -10 -9 5 4 11 3 16 -3 12 -6 -3 -14 4 -19
17 -12 33 -37 52 -58 44 -10 -4 -14 -4 -11 0 10 9 -11 46 -22 39 -5 -3 -11 -1
-15 5 -4 6 -10 8 -15 5 -5 -3 -12 0 -16 6 -4 8 -3 9 4 5 7 -4 12 -1 12 8 0 9
-3 15 -7 15 -5 -1 -14 -1 -22 0 -11 1 -11 4 0 18 13 15 12 15 -5 6 -22 -12
-46 4 -46 31 0 9 -7 13 -20 11 -15 -3 -20 2 -20 18 -1 22 -1 22 -16 2 -15 -19
-15 -19 -10 8 3 16 1 25 -5 22 -5 -4 -9 -1 -9 6 0 9 -3 9 -14 0 -9 -8 -16 -8
-20 -2 -4 5 -2 12 4 16 18 11 2 23 -24 18 -22 -5 -25 -2 -21 18 3 16 2 20 -6
12 -13 -13 -39 -6 -39 9 0 6 7 5 15 -2 13 -11 14 -10 9 4 -5 14 -24 21 -47 17
-5 -1 -5 4 -1 10 4 8 -1 9 -17 5 -13 -3 -18 -3 -11 0 17 8 15 21 -4 28 -8 3
-12 2 -9 -3 10 -18 -13 -21 -26 -4 -8 9 -9 14 -3 10 7 -4 14 -1 17 7 4 10 0
12 -14 9 -10 -3 -20 0 -20 6 -1 6 -2 17 -3 24 -1 6 -11 11 -24 9 -12 -2 -22 2
-22 9 0 9 -3 9 -14 0 -12 -10 -13 -8 -9 11 5 19 3 21 -8 11 -7 -7 -18 -13 -24
-13 -5 0 -3 5 5 10 10 6 11 10 3 10 -7 0 -13 5 -13 11 0 5 4 7 10 4 6 -4 7 1
3 11 -4 11 -8 13 -11 6 -4 -14 -42 -16 -42 -3 0 5 5 11 12 13 9 3 9 6 0 12 -7
4 -12 2 -12 -3 0 -6 -5 -11 -11 -11 -5 0 -8 4 -4 9 3 5 0 13 -6 17 -8 4 -9 3
-5 -4 4 -7 2 -12 -3 -12 -6 0 -11 6 -11 13 0 8 -7 14 -15 15 -8 1 -21 3 -29 4
-8 1 -13 9 -11 18 2 10 -4 16 -17 17 -11 1 -27 10 -35 20 -8 10 -12 12 -8 6 9
-18 2 -16 -23 6 -12 10 -19 20 -16 23 3 3 -2 8 -10 11 -11 4 -13 1 -9 -11 4
-13 2 -12 -10 3 -8 11 -13 23 -11 27 3 4 -3 5 -12 1 -10 -4 -15 -2 -11 4 8 12
-24 13 -40 1 -8 -7 -10 -3 -6 11 4 15 0 20 -13 20 -40 1 -53 5 -48 13 3 5 10
5 16 2 7 -4 8 -2 4 4 -4 6 -14 8 -23 5 -11 -4 -14 -3 -9 5 4 7 2 12 -3 12 -6
0 -11 -6 -11 -12 0 -7 -8 -1 -17 12 -10 14 -17 28 -15 33 1 4 -4 6 -10 5 -7
-2 -12 4 -10 12 3 11 -2 10 -17 -4 -19 -17 -26 -15 -22 7 0 4 -6 7 -15 7 -9 0
-12 -5 -8 -12 5 -10 3 -10 -7 0 -12 11 -12 14 1 22 12 7 10 9 -7 7 -12 0 -20
-4 -18 -7 2 -3 -5 -6 -15 -6 -10 0 -16 4 -14 8 3 4 0 8 -6 8 -6 0 -8 5 -5 10
9 14 -19 12 -34 -2 -8 -9 -11 -9 -9 -2 2 7 -1 11 -5 10 -5 0 -13 7 -18 16 -5
9 -15 16 -22 14 -6 -1 -9 -1 -4 1 14 9 7 22 -10 16 -11 -4 -14 -3 -9 6 4 6 4
11 -1 10 -22 -4 -34 2 -27 14 4 6 -3 3 -15 -7 -22 -20 -22 -20 -15 0 6 16 5
17 -7 7 -20 -19 -34 -16 -18 4 10 11 10 14 2 9 -7 -4 -13 -2 -13 3 0 6 -12 11
-26 11 -16 0 -23 -4 -18 -12 4 -7 3 -8 -4 -4 -6 4 -9 13 -5 21 3 8 0 15 -7 15
-6 0 -8 5 -4 12 4 7 3 8 -5 4 -6 -4 -9 -11 -6 -16 3 -5 1 -12 -5 -15 -6 -4 -9
-1 -8 5 2 7 -5 14 -16 15 -10 2 -27 13 -37 24 -21 22 -35 28 -24 11 15 -24
-22 -7 -48 23 -15 17 -25 24 -21 15 3 -11 1 -18 -5 -18 -6 0 -11 6 -11 13 0 8
-4 7 -10 -3 -7 -11 -10 -11 -10 -2 0 7 -4 11 -9 8 -5 -3 -21 6 -36 20 -15 14
-25 19 -22 11 3 -7 -1 -14 -8 -14 -8 0 -11 7 -7 16 5 14 4 14 -13 1 -17 -13
-18 -13 -13 0 4 12 -3 15 -33 14 -21 0 -36 3 -33 8 4 5 0 9 -7 7 -25 -3 -40 1
-35 9 2 4 -4 13 -14 20 -12 7 -21 8 -25 2 -3 -6 -11 -10 -16 -10 -6 0 -7 5 -4
10 3 6 -4 10 -17 10 -18 0 -20 -2 -8 -10 8 -5 10 -10 4 -10 -19 0 -24 13 -12
29 7 9 9 13 4 9 -5 -4 -17 -3 -27 3 -12 6 -19 6 -19 0 0 -5 6 -12 13 -14 7 -4
8 -6 1 -6 -6 -1 -17 6 -24 14 -7 8 -17 15 -22 15 -6 0 -4 -7 3 -17 13 -15 12
-15 -8 -3 -12 8 -19 18 -17 22 3 4 -6 8 -20 8 -14 0 -26 4 -26 9 0 5 -7 12
-16 15 -13 5 -14 3 -6 -7 9 -10 5 -12 -16 -11 -35 1 -64 14 -79 33 -9 11 -12
12 -13 3 0 -9 -5 -10 -18 -3 -13 7 -23 6 -31 -2 -9 -9 -11 -9 -9 0 2 6 -1 11
-7 11 -5 0 -9 -4 -7 -10 1 -5 -2 -6 -8 -3 -6 4 -9 14 -6 22 4 8 2 11 -5 7 -6
-4 -16 0 -21 7 -7 10 -7 7 -3 -8 4 -14 2 -23 -4 -23 -6 0 -10 3 -10 8 4 25 -2
34 -15 23 -11 -9 -16 -9 -22 0 -4 8 -3 9 4 5 18 -11 14 0 -5 15 -10 8 -14 9
-10 2 4 -6 3 -14 -2 -18 -5 -3 -14 3 -20 12 -9 16 -10 16 -11 2 0 -19 -46 -18
-64 1 -8 10 -6 10 11 1 12 -6 24 -7 27 -3 3 5 0 9 -7 9 -22 1 -42 8 -50 18 -5
6 -7 3 -3 -7 3 -10 0 -20 -6 -24 -7 -5 -8 -2 -3 6 6 10 3 12 -13 8 -13 -4 -19
-2 -16 6 3 7 -5 12 -20 12 -14 0 -22 -4 -20 -8 3 -5 11 -5 17 -1 7 4 6 0 -2
-10 -14 -17 -26 -24 -18 -9 2 4 -5 17 -18 30 -16 17 -22 19 -22 8 0 -8 5 -12
10 -9 6 3 7 1 3 -5 -11 -18 -26 -14 -26 6 0 14 -2 15 -10 2 -9 -13 -10 -13
-10 0 0 18 -38 24 -57 8 -7 -5 -10 -15 -6 -22 3 -6 2 -7 -2 -3 -13 11 -15 38
-3 31 7 -4 8 -2 4 4 -4 7 -15 8 -30 2 -13 -5 -29 -4 -37 1 -19 12 -32 11 -23
-2 4 -7 -2 -6 -17 1 -18 10 -24 10 -27 1 -3 -8 -9 -6 -18 6 -13 17 -14 17 -8
0 5 -13 2 -16 -10 -11 -9 3 -13 11 -9 18 3 6 3 8 -2 4 -4 -4 -15 -2 -23 5 -13
10 -14 9 -7 -2 6 -11 4 -13 -9 -8 -9 4 -15 3 -12 -1 2 -4 -11 -8 -30 -8 -33 0
-44 9 -25 20 5 4 11 1 13 -6 5 -14 28 -2 28 15 0 8 -3 8 -9 -2 -6 -9 -10 -10
-16 -2 -5 9 -10 9 -21 0 -11 -9 -14 -8 -14 2 0 9 -3 10 -8 4 -7 -10 -14 -12
-55 -20 -10 -2 -21 3 -24 11 -4 12 -8 12 -13 4 -8 -13 -70 -22 -68 -11 2 20
-4 22 -17 5 -10 -13 -13 -14 -10 -3 4 9 0 16 -9 16 -8 0 -12 -6 -9 -13 2 -6
-1 -15 -8 -20 -7 -4 -10 -3 -6 3 4 6 -1 17 -10 24 -12 10 -14 10 -9 2 4 -8 1
-13 -8 -13 -9 0 -16 -5 -16 -12 0 -6 -3 -8 -6 -5 -4 4 -2 13 4 20 9 10 8 14
-3 14 -8 0 -15 -4 -15 -9 0 -4 -5 -8 -11 -8 -5 0 -8 4 -5 8 2 4 -4 8 -14 8
-18 0 -18 -1 -2 -21 9 -11 10 -14 2 -7 -8 6 -22 12 -32 12 -10 0 -18 4 -18 8
0 10 -25 9 -59 -2 -16 -6 -26 -4 -32 5 -6 10 -9 11 -9 2 0 -7 -5 -13 -11 -13
-5 0 -7 5 -3 11 3 6 -5 4 -19 -6 -24 -15 -26 -15 -36 2 -9 16 -10 16 -11 1 0
-9 -5 -20 -12 -24 -7 -4 -8 -3 -4 4 4 7 2 12 -4 12 -6 0 -8 5 -4 12 4 7 3 8
-5 4 -6 -4 -9 -13 -5 -19 3 -7 -2 -3 -12 8 -16 20 -16 20 -11 -2 3 -15 1 -20
-9 -16 -8 3 -12 9 -9 13 3 5 1 11 -4 14 -5 4 -13 1 -17 -5 -5 -8 -3 -9 6 -4 9
6 11 4 5 -5 -6 -10 -11 -9 -22 5 -7 11 -13 14 -13 7 0 -6 -7 -9 -15 -6 -8 4
-15 1 -15 -6 0 -6 5 -8 12 -4 7 5 8 3 3 -6 -6 -10 -11 -9 -22 5 -7 11 -13 14
-13 8 0 -16 -34 -22 -47 -8 -7 7 -9 16 -6 19 4 3 4 6 1 6 -2 0 -8 -3 -11 -7z
m376 -18 c-3 -9 -8 -14 -10 -11 -3 3 -2 9 2 15 9 16 15 13 8 -4z m-249 -11 c3
-8 2 -12 -4 -9 -6 3 -10 10 -10 16 0 14 7 11 14 -7z m651 7 c-9 -8 -36 -10
-30 -2 2 4 11 8 20 8 8 0 13 -3 10 -6z m115 -11 c0 -5 -5 -10 -11 -10 -5 0 -7
5 -4 10 3 6 8 10 11 10 2 0 4 -4 4 -10z m-1095 -20 c3 -6 -1 -7 -9 -4 -18 7
-21 14 -7 14 6 0 13 -4 16 -10z m1339 2 c3 -5 -1 -9 -9 -9 -8 0 -15 4 -15 9 0
4 4 8 9 8 6 0 12 -4 15 -8z m-1729 -65 c3 -4 2 -5 -2 -2 -3 3 -12 0 -18 -5 -9
-7 -14 -6 -18 3 -5 14 28 17 38 4z m-440 -116 c3 -5 2 -12 -3 -15 -5 -3 -9 1
-9 9 0 17 3 19 12 6z m2983 -16 c-3 -3 -9 2 -12 12 -6 14 -5 15 5 6 7 -7 10
-15 7 -18z m-3628 -209 c0 -2 -6 -9 -14 -15 -11 -9 -16 -9 -22 0 -4 7 -3 9 4
5 6 -3 13 -2 17 4 6 10 15 14 15 6z m-180 -106 c-8 -5 -19 -10 -25 -10 -5 0
-3 5 5 10 8 5 20 10 25 10 6 0 3 -5 -5 -10z m4653 -28 c14 -15 15 -19 2 -19
-8 0 -12 4 -9 9 3 4 0 8 -5 8 -6 0 -11 5 -11 10 0 14 5 13 23 -8z m-4761 -19
c-6 -2 -9 -10 -6 -15 4 -7 2 -8 -5 -4 -13 9 -5 26 12 25 9 0 8 -2 -1 -6z
m4957 -100 c2 -1 -5 -1 -16 0 -11 0 -20 7 -20 14 0 10 4 10 16 1 9 -7 18 -13
20 -15z m-5432 -188 c0 -8 -4 -12 -9 -9 -5 3 -6 10 -3 15 9 13 12 11 12 -6z
m-42 -35 c3 -5 0 -7 -8 -4 -9 3 -22 -4 -31 -18 -9 -12 -16 -17 -16 -11 0 14
28 43 40 43 5 0 12 -4 15 -10z m5851 -20 c0 -12 -4 -16 -9 -11 -5 5 -6 14 -3
20 10 15 12 14 12 -9z m-5936 -29 c0 -5 -7 -12 -16 -15 -14 -5 -15 -4 -4 9 14
17 20 19 20 6z m6250 -215 c0 -2 -7 -7 -16 -10 -8 -3 -12 -2 -9 4 6 10 25 14
25 6z m-6550 -32 c0 -8 -19 -13 -24 -6 -3 5 1 9 9 9 8 0 15 -2 15 -3z m-45
-24 c3 -5 -1 -10 -10 -10 -9 0 -13 5 -10 10 3 6 8 10 10 10 2 0 7 -4 10 -10z
m6786 -97 c13 -16 12 -17 -3 -4 -17 13 -22 21 -14 21 2 0 10 -8 17 -17z m368
-387 c0 -7 -2 -6 -6 2 -2 6 -8 10 -12 8 -4 -3 -8 1 -8 9 0 11 4 12 14 4 7 -6
13 -17 12 -23z m186 -215 c3 -5 0 -13 -6 -17 -7 -4 -9 -3 -5 4 3 5 0 13 -6 15
-9 4 -10 6 -1 6 6 1 14 -3 18 -8z m-8213 -277 c-12 -8 -19 -20 -16 -26 5 -7 2
-8 -5 -4 -9 6 -8 13 5 27 9 10 22 19 28 19 6 0 0 -7 -12 -16z m8478 -94 c0 -5
-2 -10 -4 -10 -3 0 -8 5 -11 10 -3 6 -1 10 4 10 6 0 11 -4 11 -10z m-8576 -55
c-4 -8 -11 -15 -16 -15 -6 0 -5 6 2 15 7 8 14 15 16 15 2 0 1 -7 -2 -15z
m8690 -122 c11 -13 16 -23 13 -23 -10 0 -37 31 -37 42 0 6 1 9 3 7 1 -2 11
-14 21 -26z m-8970 -371 c3 -5 -1 -9 -9 -9 -8 0 -12 4 -9 9 3 4 7 8 9 8 2 0 6
-4 9 -8z m-184 -432 c0 -5 -5 -10 -11 -10 -5 0 -7 5 -4 10 3 6 8 10 11 10 2 0
4 -4 4 -10z m9566 -55 c1 -8 -2 -15 -8 -15 -6 0 -8 6 -5 14 3 7 1 19 -4 25 -6
8 -5 8 3 1 6 -5 13 -17 14 -25z m-9611 -93 c-3 -3 -11 0 -18 7 -9 10 -8 11 6
5 10 -3 15 -9 12 -12z m-26 -59 c-6 -7 -17 -13 -23 -12 -7 0 -6 2 2 6 6 2 10
8 8 12 -3 4 1 8 9 8 11 0 12 -4 4 -14z m9691 13 c0 -3 -4 -8 -10 -11 -5 -3
-10 -1 -10 4 0 6 5 11 10 11 6 0 10 -2 10 -4z m-9720 -111 c0 -2 -6 -5 -13 -8
-8 -3 -14 1 -14 8 0 7 6 11 14 8 7 -3 13 -6 13 -8z m9870 -430 c0 -2 -6 -5
-13 -8 -8 -3 -14 1 -14 8 0 7 6 11 14 8 7 -3 13 -6 13 -8z m-10093 -650 c0 -8
-4 -12 -9 -9 -5 3 -6 10 -3 15 9 13 12 11 12 -6z m10186 -80 c-3 -9 -8 -14
-10 -11 -3 3 -2 9 2 15 9 16 15 13 8 -4z m22 -34 c3 -6 -5 -15 -17 -22 -20
-11 -21 -10 -11 3 7 8 10 18 6 21 -3 4 -1 7 5 7 6 0 13 -4 17 -9z m-15 -855
c0 -3 -4 -8 -10 -11 -5 -3 -10 -1 -10 4 0 6 5 11 10 11 6 0 10 -2 10 -4z m-73
-393 c-4 -3 -1 -13 6 -22 11 -14 10 -14 -5 -2 -16 12 -16 31 -1 31 4 0 3 -3 0
-7z m-9930 -557 c-3 -7 -1 -18 5 -24 6 -6 6 -12 -3 -17 -7 -5 -10 -4 -5 3 3 6
2 13 -3 17 -10 5 -4 35 6 35 3 0 3 -6 0 -14z m9803 -30 c0 -3 -4 -8 -10 -11
-5 -3 -10 -1 -10 4 0 6 5 11 10 11 6 0 10 -2 10 -4z m-303 -762 c-3 -3 -12 -4
-19 -1 -8 3 -5 6 6 6 11 1 17 -2 13 -5z m-9153 -74 c-5 -5 -10 3 -11 18 -1 22
0 24 9 8 6 -10 6 -22 2 -26z m31 -29 c3 -5 2 -12 -3 -15 -5 -3 -9 1 -9 9 0 17
3 19 12 6z m8975 -156 c-7 -9 -15 -13 -19 -10 -3 3 1 10 9 15 21 14 24 12 10
-5z m-8828 -129 c7 4 8 2 4 -4 -4 -7 -2 -12 5 -12 7 0 9 -3 6 -6 -8 -9 -37 15
-36 30 0 7 2 6 6 -2 2 -6 10 -9 15 -6z m8688 -120 c0 -3 -4 -8 -10 -11 -5 -3
-10 -1 -10 4 0 6 5 11 10 11 6 0 10 -2 10 -4z m-40 -51 c-7 -9 -15 -13 -19
-10 -3 3 1 10 9 15 21 14 24 12 10 -5z m-120 -179 c0 -2 -7 -9 -15 -16 -13
-11 -14 -10 -9 4 5 14 24 23 24 12z m-7837 -531 c-3 -9 -8 -14 -10 -11 -3 3
-2 9 2 15 9 16 15 13 8 -4z m7087 -298 c0 -2 -9 -12 -20 -22 -24 -21 -27 -14
-4 9 15 15 24 20 24 13z m-6638 -111 c7 4 8 2 4 -5 -9 -13 -26 -5 -25 12 0 9
2 8 6 -1 2 -6 10 -9 15 -6z m280 -213 c-10 -4 -10 -8 0 -21 12 -15 11 -16 -4
-3 -19 14 -15 32 5 30 8 0 8 -2 -1 -6z m5592 -239 c3 -8 2 -12 -4 -9 -6 3 -10
10 -10 16 0 14 7 11 14 -7z m-5100 -72 c3 -5 -1 -9 -9 -9 -8 0 -15 4 -15 9 0
4 4 8 9 8 6 0 12 -4 15 -8z m4928 -21 c8 11 9 11 6 1 -4 -16 -22 -18 -24 -2
-2 7 -1 6 3 -1 4 -8 8 -7 15 2z m-4838 -43 c-3 -4 -11 -5 -19 -1 -21 7 -19 12
4 10 11 0 18 -5 15 -9z m163 -90 c-3 -8 -6 -5 -6 6 -1 11 2 17 5 13 3 -3 4
-12 1 -19z m4000 -173 c0 -8 -4 -12 -9 -9 -5 3 -6 10 -3 15 9 13 12 11 12 -6z
m-705 -227 c-7 -7 -12 -8 -12 -2 0 14 12 26 19 19 2 -3 -1 -11 -7 -17z m-2098
4 c3 -5 -1 -9 -9 -9 -8 0 -12 4 -9 9 3 4 7 8 9 8 2 0 6 -4 9 -8z m86 -6 c0 -3
-4 -8 -10 -11 -5 -3 -10 -1 -10 4 0 6 5 11 10 11 6 0 10 -2 10 -4z m1440 -71
c0 -8 -2 -15 -4 -15 -2 0 -6 7 -10 15 -3 8 -1 15 4 15 6 0 10 -7 10 -15z
m-121 -8 c8 -10 7 -14 -2 -14 -8 0 -14 6 -14 14 0 7 1 13 2 13 2 0 8 -6 14
-13z m-445 -12 c3 -8 1 -15 -4 -15 -6 0 -10 7 -10 15 0 8 2 15 4 15 2 0 6 -7
10 -15z m351 5 c3 -6 -1 -7 -9 -4 -18 7 -21 14 -7 14 6 0 13 -4 16 -10z"/>
<path d="M9075 16280 c-3 -5 -1 -10 4 -10 6 0 11 5 11 10 0 6 -2 10 -4 10 -3
0 -8 -4 -11 -10z"/>
<path d="M9745 16279 c-3 -4 2 -6 10 -5 21 3 28 13 10 13 -9 0 -18 -4 -20 -8z"/>
<path d="M8890 16249 c0 -5 5 -7 10 -4 6 3 10 8 10 11 0 2 -4 4 -10 4 -5 0
-10 -5 -10 -11z"/>
<path d="M10675 16159 c-4 -6 -5 -11 -4 -12 2 -2 13 -9 24 -17 19 -14 19 -14
2 6 -9 11 -14 24 -10 27 3 4 4 7 0 7 -3 0 -9 -5 -12 -11z"/>
<path d="M11062 16034 c10 -10 20 -16 22 -13 3 3 -5 11 -17 18 -21 13 -21 12
-5 -5z"/>
<path d="M11180 15996 c0 -2 7 -9 15 -16 9 -7 15 -8 15 -2 0 5 -7 12 -15 16
-8 3 -15 4 -15 2z"/>
<path d="M7573 15925 c0 -8 4 -12 9 -9 5 3 6 10 3 15 -9 13 -12 11 -12 -6z"/>
<path d="M11633 15805 c0 -8 4 -12 9 -9 5 3 6 10 3 15 -9 13 -12 11 -12 -6z"/>
<path d="M7250 15800 c-9 -6 -10 -10 -3 -10 6 0 15 5 18 10 8 12 4 12 -15 0z"/>
<path d="M11655 15780 c3 -5 8 -10 11 -10 2 0 4 5 4 10 0 6 -5 10 -11 10 -5 0
-7 -4 -4 -10z"/>
<path d="M6910 15599 c0 -5 5 -7 10 -4 6 3 10 8 10 11 0 2 -4 4 -10 4 -5 0
-10 -5 -10 -11z"/>
<path d="M12826 15008 c3 -5 10 -6 15 -3 13 9 11 12 -6 12 -8 0 -12 -4 -9 -9z"/>
<path d="M6055 15000 c-3 -5 -1 -10 4 -10 6 0 11 5 11 10 0 6 -2 10 -4 10 -3
0 -8 -4 -11 -10z"/>
<path d="M13546 14233 c-6 -14 -5 -15 5 -6 7 7 10 15 7 18 -3 3 -9 -2 -12 -12z"/>
<path d="M13925 13660 c-3 -5 -1 -10 4 -10 6 0 11 5 11 10 0 6 -2 10 -4 10 -3
0 -8 -4 -11 -10z"/>
<path d="M14000 13506 c0 -2 7 -9 15 -16 13 -11 14 -10 9 4 -5 14 -24 23 -24
12z"/>
<path d="M14070 13366 c0 -2 7 -9 15 -16 13 -11 14 -10 9 4 -5 14 -24 23 -24
12z"/>
<path d="M14175 13140 c-3 -5 -1 -10 4 -10 6 0 11 5 11 10 0 6 -2 10 -4 10 -3
0 -8 -4 -11 -10z"/>
<path d="M4636 12953 c-6 -14 -5 -15 5 -6 7 7 10 15 7 18 -3 3 -9 -2 -12 -12z"/>
<path d="M14265 12890 c-3 -6 1 -7 9 -4 18 7 21 14 7 14 -6 0 -13 -4 -16 -10z"/>
<path d="M14357 12629 c7 -7 15 -10 18 -7 3 3 -2 9 -12 12 -14 6 -15 5 -6 -5z"/>
<path d="M4518 12563 c7 -3 16 -2 19 1 4 3 -2 6 -13 5 -11 0 -14 -3 -6 -6z"/>
<path d="M4350 11825 c0 -2 6 -8 13 -14 10 -8 14 -7 14 2 0 8 -6 14 -14 14 -7
0 -13 -1 -13 -2z"/>
<path d="M4334 11546 c1 -8 5 -18 8 -22 4 -3 5 1 4 10 -1 8 -5 18 -8 22 -4 3
-5 -1 -4 -10z"/>
<path d="M14526 10362 c-3 -5 1 -9 9 -9 8 0 12 4 9 9 -3 4 -7 8 -9 8 -2 0 -6
-4 -9 -8z"/>
<path d="M4393 10237 c0 -8 6 -14 14 -14 9 0 10 4 2 14 -6 7 -12 13 -14 13 -1
0 -2 -6 -2 -13z"/>
<path d="M4519 9703 c-13 -16 -12 -17 4 -4 9 7 17 15 17 17 0 8 -8 3 -21 -13z"/>
<path d="M14370 9680 c0 -5 5 -10 10 -10 6 0 10 5 10 10 0 6 -4 10 -10 10 -5
0 -10 -4 -10 -10z"/>
<path d="M4550 9606 c0 -2 7 -7 16 -10 8 -3 12 -2 9 4 -6 10 -25 14 -25 6z"/>
<path d="M5093 8435 c0 -8 4 -12 9 -9 5 3 6 10 3 15 -9 13 -12 11 -12 -6z"/>
<path d="M5222 8250 c7 -11 17 -20 22 -20 5 0 1 9 -9 20 -10 11 -20 20 -22 20
-2 0 2 -9 9 -20z"/>
<path d="M13645 8210 c-3 -5 -1 -10 4 -10 6 0 11 5 11 10 0 6 -2 10 -4 10 -3
0 -8 -4 -11 -10z"/>
<path d="M5311 8124 c0 -11 3 -14 6 -6 3 7 2 16 -1 19 -3 4 -6 -2 -5 -13z"/>
<path d="M13250 7699 c0 -5 5 -7 10 -4 6 3 10 8 10 11 0 2 -4 4 -10 4 -5 0
-10 -5 -10 -11z"/>
<path d="M5990 7369 c0 -5 5 -7 10 -4 6 3 10 8 10 11 0 2 -4 4 -10 4 -5 0 -10
-5 -10 -11z"/>
<path d="M12650 7119 c0 -5 5 -7 10 -4 6 3 10 8 10 11 0 2 -4 4 -10 4 -5 0
-10 -5 -10 -11z"/>
<path d="M6555 6920 c-3 -5 -1 -10 4 -10 6 0 11 5 11 10 0 6 -2 10 -4 10 -3 0
-8 -4 -11 -10z"/>
<path d="M7316 6482 c-3 -5 1 -9 9 -9 8 0 12 4 9 9 -3 4 -7 8 -9 8 -2 0 -6 -4
-9 -8z"/>
<path d="M11545 6471 c-3 -5 -2 -12 3 -15 5 -3 9 1 9 9 0 17 -3 19 -12 6z"/>
<path d="M10930 6219 c0 -5 5 -7 10 -4 6 3 10 8 10 11 0 2 -4 4 -10 4 -5 0
-10 -5 -10 -11z"/>
<path d="M8720 6070 c-9 -6 -10 -10 -3 -10 6 0 15 5 18 10 8 12 4 12 -15 0z"/>
<path d="M10026 6048 c3 -5 10 -6 15 -3 13 9 11 12 -6 12 -8 0 -12 -4 -9 -9z"/>
<path d="M9275 6020 c-3 -5 -1 -10 4 -10 6 0 11 5 11 10 0 6 -2 10 -4 10 -3 0
-8 -4 -11 -10z"/>
</g>
</svg>
